<svg width="282" height="46" viewBox="0 0 282 46" fill="none" xmlns="http://www.w3.org/2000/svg">
<path d="M15.36 38.6C13.4133 38.6 11.64 38.28 10.04 37.64C8.44 37 7.06667 36.0667 5.92 34.84C4.77333 33.6133 3.88 32.1067 3.24 30.32C2.62667 28.5067 2.32 26.44 2.32 24.12C2.32 21.8 2.66667 19.7467 3.36 17.96C4.08 16.1467 5.04 14.6267 6.24 13.4C7.44 12.1733 8.84 11.24 10.44 10.6C12.04 9.96 13.7467 9.64 15.56 9.64C16.7067 9.64 17.7333 9.72 18.64 9.88C19.5733 10.04 20.3733 10.2267 21.04 10.44C21.7333 10.6533 22.2933 10.8667 22.72 11.08C23.1467 11.2933 23.44 11.4533 23.6 11.56L22.48 14.76C22.24 14.6 21.8933 14.4267 21.44 14.24C20.9867 14.0533 20.4667 13.8667 19.88 13.68C19.32 13.4933 18.6933 13.3467 18 13.24C17.3333 13.1067 16.6533 13.04 15.96 13.04C14.4933 13.04 13.1733 13.2933 12 13.8C10.8267 14.3067 9.82667 15.04 9 16C8.17333 16.96 7.53333 18.1333 7.08 19.52C6.65333 20.88 6.44 22.4133 6.44 24.12C6.44 25.7733 6.62667 27.28 7 28.64C7.4 30 7.98667 31.1733 8.76 32.16C9.53333 33.12 10.4933 33.8667 11.64 34.4C12.8133 34.9333 14.1733 35.2 15.72 35.2C17.5067 35.2 18.9867 35.0133 20.16 34.64C21.3333 34.2667 22.2133 33.9333 22.8 33.64L23.8 36.84C23.6133 36.9733 23.28 37.1467 22.8 37.36C22.32 37.5467 21.72 37.7333 21 37.92C20.28 38.1067 19.44 38.2667 18.48 38.4C17.52 38.5333 16.48 38.6 15.36 38.6ZM41.3566 17.2V20.32H34.5966V38H30.8766V20.32H24.1166V17.2H41.3566ZM52.2322 35.32C53.1122 35.32 53.8855 35.3067 54.5522 35.28C55.2455 35.2267 55.8189 35.1467 56.2722 35.04V28.84C56.0055 28.7067 55.5655 28.6 54.9522 28.52C54.3655 28.4133 53.6455 28.36 52.7922 28.36C52.2322 28.36 51.6322 28.4 50.9922 28.48C50.3789 28.56 49.8055 28.7333 49.2722 29C48.7655 29.24 48.3389 29.5867 47.9922 30.04C47.6455 30.4667 47.4722 31.04 47.4722 31.76C47.4722 33.0933 47.8989 34.0267 48.7522 34.56C49.6055 35.0667 50.7655 35.32 52.2322 35.32ZM51.9122 16.68C53.4055 16.68 54.6589 16.88 55.6722 17.28C56.7122 17.6533 57.5389 18.2 58.1522 18.92C58.7922 19.6133 59.2455 20.4533 59.5122 21.44C59.7789 22.4 59.9122 23.4667 59.9122 24.64V37.64C59.5922 37.6933 59.1389 37.7733 58.5522 37.88C57.9922 37.96 57.3522 38.04 56.6322 38.12C55.9122 38.2 55.1255 38.2667 54.2722 38.32C53.4455 38.4 52.6189 38.44 51.7922 38.44C50.6189 38.44 49.5389 38.32 48.5522 38.08C47.5655 37.84 46.7122 37.4667 45.9922 36.96C45.2722 36.4267 44.7122 35.7333 44.3122 34.88C43.9122 34.0267 43.7122 33 43.7122 31.8C43.7122 30.6533 43.9389 29.6667 44.3922 28.84C44.8722 28.0133 45.5122 27.3467 46.3122 26.84C47.1122 26.3333 48.0455 25.96 49.1122 25.72C50.1789 25.48 51.2989 25.36 52.4722 25.36C52.8455 25.36 53.2322 25.3867 53.6322 25.44C54.0322 25.4667 54.4055 25.52 54.7522 25.6C55.1255 25.6533 55.4455 25.7067 55.7122 25.76C55.9789 25.8133 56.1655 25.8533 56.2722 25.88V24.84C56.2722 24.2267 56.2055 23.6267 56.0722 23.04C55.9389 22.4267 55.6989 21.8933 55.3522 21.44C55.0055 20.96 54.5255 20.5867 53.9122 20.32C53.3255 20.0267 52.5522 19.88 51.5922 19.88C50.3655 19.88 49.2855 19.9733 48.3522 20.16C47.4455 20.32 46.7655 20.4933 46.3122 20.68L45.8722 17.6C46.3522 17.3867 47.1522 17.1867 48.2722 17C49.3922 16.7867 50.6055 16.68 51.9122 16.68ZM80.5306 27.64C80.5306 25.2133 79.9306 23.3467 78.7306 22.04C77.5306 20.7333 75.9306 20.08 73.9306 20.08C72.8106 20.08 71.9306 20.12 71.2906 20.2C70.6773 20.28 70.184 20.3733 69.8106 20.48V33.6C70.264 33.9733 70.9173 34.3333 71.7706 34.68C72.624 35.0267 73.5573 35.2 74.5706 35.2C75.6373 35.2 76.544 35.0133 77.2906 34.64C78.064 34.24 78.6906 33.7067 79.1706 33.04C79.6506 32.3467 79.9973 31.5467 80.2106 30.64C80.424 29.7067 80.5306 28.7067 80.5306 27.64ZM84.4106 27.64C84.4106 29.2133 84.1973 30.6667 83.7706 32C83.3706 33.3333 82.7706 34.48 81.9706 35.44C81.1706 36.4 80.184 37.1467 79.0106 37.68C77.864 38.2133 76.544 38.48 75.0506 38.48C73.8506 38.48 72.784 38.32 71.8506 38C70.944 37.68 70.264 37.3733 69.8106 37.08V45.4H66.0906V17.84C66.9706 17.6267 68.064 17.4 69.3706 17.16C70.704 16.8933 72.2373 16.76 73.9706 16.76C75.5706 16.76 77.0106 17.0133 78.2906 17.52C79.5706 18.0267 80.664 18.7467 81.5706 19.68C82.4773 20.6133 83.1706 21.76 83.6506 23.12C84.1573 24.4533 84.4106 25.96 84.4106 27.64ZM104.325 17.2V20.32H97.5653V38H93.8453V20.32H87.0853V17.2H104.325Z" fill="#38E54D"/>
<rect x="113" y="1" width="169" height="45" rx="22.5" fill="#2192FF"/>
<path d="M173.068 10.052V35H169.576V13.04H157.588V35H154.096V10.052H173.068ZM185.568 19.088C185.568 19.88 185.544 20.732 185.496 21.644C185.472 22.532 185.412 23.432 185.316 24.344C185.22 25.232 185.088 26.12 184.92 27.008C184.752 27.872 184.536 28.688 184.272 29.456C184.008 30.224 183.672 30.944 183.264 31.616C182.88 32.288 182.4 32.888 181.824 33.416C181.248 33.92 180.576 34.352 179.808 34.712C179.04 35.048 178.14 35.264 177.108 35.36L176.64 32.552C177.816 32.312 178.74 31.868 179.412 31.22C180.108 30.572 180.66 29.78 181.068 28.844C181.428 28.028 181.692 27.104 181.86 26.072C182.028 25.04 182.148 23.972 182.22 22.868C182.292 21.74 182.328 20.612 182.328 19.484C182.352 18.356 182.364 17.288 182.364 16.28H194.82V35H191.472V19.088H185.568ZM203.916 24.02H208.02C208.164 22.772 208.476 21.644 208.956 20.636C209.46 19.628 210.084 18.764 210.828 18.044C211.572 17.324 212.424 16.772 213.384 16.388C214.344 16.004 215.376 15.812 216.48 15.812C217.704 15.812 218.832 16.052 219.864 16.532C220.92 16.988 221.832 17.648 222.6 18.512C223.368 19.376 223.968 20.42 224.4 21.644C224.832 22.844 225.048 24.176 225.048 25.64C225.048 27.128 224.832 28.472 224.4 29.672C223.968 30.872 223.368 31.904 222.6 32.768C221.832 33.632 220.92 34.304 219.864 34.784C218.832 35.24 217.704 35.468 216.48 35.468C215.328 35.468 214.248 35.264 213.24 34.856C212.256 34.424 211.392 33.836 210.648 33.092C209.904 32.324 209.292 31.4 208.812 30.32C208.356 29.24 208.08 28.04 207.984 26.72H203.916V35H200.568V16.28H203.916V24.02ZM221.592 25.64C221.592 23.528 221.124 21.86 220.188 20.636C219.276 19.388 218.04 18.764 216.48 18.764C214.92 18.764 213.672 19.388 212.736 20.636C211.824 21.86 211.368 23.528 211.368 25.64C211.368 27.752 211.824 29.432 212.736 30.68C213.672 31.904 214.92 32.516 216.48 32.516C218.04 32.516 219.276 31.904 220.188 30.68C221.124 29.432 221.592 27.752 221.592 25.64ZM237.883 35.432C236.371 35.432 235.039 35.192 233.887 34.712C232.759 34.232 231.799 33.56 231.007 32.696C230.239 31.832 229.663 30.812 229.279 29.636C228.895 28.436 228.703 27.116 228.703 25.676C228.703 24.236 228.907 22.916 229.315 21.716C229.747 20.516 230.347 19.484 231.115 18.62C231.883 17.732 232.819 17.048 233.923 16.568C235.051 16.064 236.299 15.812 237.667 15.812C238.507 15.812 239.347 15.884 240.187 16.028C241.027 16.172 241.831 16.4 242.599 16.712L241.843 19.556C241.339 19.316 240.751 19.124 240.079 18.98C239.431 18.836 238.735 18.764 237.991 18.764C236.119 18.764 234.679 19.352 233.671 20.528C232.687 21.704 232.195 23.42 232.195 25.676C232.195 26.684 232.303 27.608 232.519 28.448C232.759 29.288 233.119 30.008 233.599 30.608C234.103 31.208 234.739 31.676 235.507 32.012C236.275 32.324 237.211 32.48 238.315 32.48C239.203 32.48 240.007 32.396 240.727 32.228C241.447 32.06 242.011 31.88 242.419 31.688L242.887 34.496C242.695 34.616 242.419 34.736 242.059 34.856C241.699 34.952 241.291 35.036 240.835 35.108C240.379 35.204 239.887 35.276 239.359 35.324C238.855 35.396 238.363 35.432 237.883 35.432Z" fill="white"/>
</svg>
